<mxfile host="app.diagrams.net" agent="Mozilla/5.0 (Windows NT 10.0; Win64; x64; rv:131.0) Gecko/20100101 Firefox/131.0" version="24.8.1">
  <diagram id="C5RBs43oDa-KdzZeNtuy" name="Page-1">
    <mxGraphModel dx="2250" dy="2027" grid="1" gridSize="10" guides="1" tooltips="1" connect="1" arrows="1" fold="1" page="1" pageScale="1" pageWidth="827" pageHeight="1169" math="0" shadow="0">
      <root>
        <mxCell id="WIyWlLk6GJQsqaUBKTNV-0" />
        <mxCell id="WIyWlLk6GJQsqaUBKTNV-1" parent="WIyWlLk6GJQsqaUBKTNV-0" />
        <mxCell id="wTgOXSbM0RJYuEq4dUPJ-47" value="&lt;div align=&quot;left&quot;&gt;&lt;br&gt;&lt;/div&gt;" style="rounded=0;whiteSpace=wrap;html=1;" vertex="1" parent="WIyWlLk6GJQsqaUBKTNV-1">
          <mxGeometry x="-150" y="30" width="1130" height="630" as="geometry" />
        </mxCell>
        <mxCell id="wTgOXSbM0RJYuEq4dUPJ-21" style="edgeStyle=orthogonalEdgeStyle;rounded=0;orthogonalLoop=1;jettySize=auto;html=1;entryX=0.5;entryY=0;entryDx=0;entryDy=0;dashed=1;" edge="1" parent="WIyWlLk6GJQsqaUBKTNV-1" target="wTgOXSbM0RJYuEq4dUPJ-2">
          <mxGeometry relative="1" as="geometry">
            <mxPoint x="541.5" y="510" as="sourcePoint" />
            <Array as="points">
              <mxPoint x="541.5" y="520" />
              <mxPoint x="541.5" y="520" />
            </Array>
          </mxGeometry>
        </mxCell>
        <mxCell id="wTgOXSbM0RJYuEq4dUPJ-9" value="" style="rounded=0;whiteSpace=wrap;html=1;dashed=1;" vertex="1" parent="WIyWlLk6GJQsqaUBKTNV-1">
          <mxGeometry x="-20" y="150" width="880" height="360" as="geometry" />
        </mxCell>
        <mxCell id="WIyWlLk6GJQsqaUBKTNV-7" value="MENU" style="rounded=1;whiteSpace=wrap;html=1;fontSize=12;glass=0;strokeWidth=1;shadow=0;" parent="WIyWlLk6GJQsqaUBKTNV-1" vertex="1">
          <mxGeometry x="90" y="190" width="120" height="40" as="geometry" />
        </mxCell>
        <mxCell id="wTgOXSbM0RJYuEq4dUPJ-0" value="PREPARING" style="rounded=1;whiteSpace=wrap;html=1;fontSize=12;glass=0;strokeWidth=1;shadow=0;" vertex="1" parent="WIyWlLk6GJQsqaUBKTNV-1">
          <mxGeometry x="614" y="190" width="120" height="40" as="geometry" />
        </mxCell>
        <mxCell id="wTgOXSbM0RJYuEq4dUPJ-8" style="edgeStyle=orthogonalEdgeStyle;rounded=0;orthogonalLoop=1;jettySize=auto;html=1;entryX=0;entryY=0.5;entryDx=0;entryDy=0;dashed=1;" edge="1" parent="WIyWlLk6GJQsqaUBKTNV-1" source="wTgOXSbM0RJYuEq4dUPJ-1" target="wTgOXSbM0RJYuEq4dUPJ-2">
          <mxGeometry relative="1" as="geometry">
            <Array as="points">
              <mxPoint x="446.5" y="580" />
              <mxPoint x="446.5" y="580" />
            </Array>
          </mxGeometry>
        </mxCell>
        <mxCell id="wTgOXSbM0RJYuEq4dUPJ-29" value="" style="edgeStyle=orthogonalEdgeStyle;rounded=0;orthogonalLoop=1;jettySize=auto;html=1;dashed=1;" edge="1" parent="WIyWlLk6GJQsqaUBKTNV-1" source="wTgOXSbM0RJYuEq4dUPJ-1" target="wTgOXSbM0RJYuEq4dUPJ-9">
          <mxGeometry relative="1" as="geometry">
            <Array as="points">
              <mxPoint x="287" y="535" />
              <mxPoint x="287" y="535" />
            </Array>
          </mxGeometry>
        </mxCell>
        <mxCell id="wTgOXSbM0RJYuEq4dUPJ-1" value="CONFIG SERVER" style="rounded=1;whiteSpace=wrap;html=1;fontSize=12;glass=0;strokeWidth=1;shadow=0;" vertex="1" parent="WIyWlLk6GJQsqaUBKTNV-1">
          <mxGeometry x="226.5" y="560" width="120" height="40" as="geometry" />
        </mxCell>
        <mxCell id="wTgOXSbM0RJYuEq4dUPJ-2" value="EUREKA SERVER" style="rounded=1;whiteSpace=wrap;html=1;fontSize=12;glass=0;strokeWidth=1;shadow=0;" vertex="1" parent="WIyWlLk6GJQsqaUBKTNV-1">
          <mxGeometry x="481.5" y="560" width="120" height="40" as="geometry" />
        </mxCell>
        <mxCell id="wTgOXSbM0RJYuEq4dUPJ-28" style="edgeStyle=orthogonalEdgeStyle;rounded=0;orthogonalLoop=1;jettySize=auto;html=1;entryX=0.25;entryY=1;entryDx=0;entryDy=0;dashed=1;" edge="1" parent="WIyWlLk6GJQsqaUBKTNV-1" source="wTgOXSbM0RJYuEq4dUPJ-3" target="WIyWlLk6GJQsqaUBKTNV-7">
          <mxGeometry relative="1" as="geometry" />
        </mxCell>
        <mxCell id="wTgOXSbM0RJYuEq4dUPJ-3" value="DELIVERY" style="rounded=1;whiteSpace=wrap;html=1;fontSize=12;glass=0;strokeWidth=1;shadow=0;" vertex="1" parent="WIyWlLk6GJQsqaUBKTNV-1">
          <mxGeometry x="354" y="440" width="120" height="40" as="geometry" />
        </mxCell>
        <mxCell id="wTgOXSbM0RJYuEq4dUPJ-27" style="edgeStyle=orthogonalEdgeStyle;rounded=0;orthogonalLoop=1;jettySize=auto;html=1;entryX=0.5;entryY=0;entryDx=0;entryDy=0;dashed=1;" edge="1" parent="WIyWlLk6GJQsqaUBKTNV-1" source="wTgOXSbM0RJYuEq4dUPJ-11" target="wTgOXSbM0RJYuEq4dUPJ-3">
          <mxGeometry relative="1" as="geometry" />
        </mxCell>
        <mxCell id="wTgOXSbM0RJYuEq4dUPJ-11" value="KAFKA BROKER" style="shape=cylinder3;whiteSpace=wrap;html=1;boundedLbl=1;backgroundOutline=1;size=15;direction=south;" vertex="1" parent="WIyWlLk6GJQsqaUBKTNV-1">
          <mxGeometry x="334" y="310" width="160" height="60" as="geometry" />
        </mxCell>
        <mxCell id="wTgOXSbM0RJYuEq4dUPJ-16" style="edgeStyle=orthogonalEdgeStyle;rounded=0;orthogonalLoop=1;jettySize=auto;html=1;entryX=0.5;entryY=1;entryDx=0;entryDy=0;entryPerimeter=0;dashed=1;" edge="1" parent="WIyWlLk6GJQsqaUBKTNV-1" source="WIyWlLk6GJQsqaUBKTNV-7" target="wTgOXSbM0RJYuEq4dUPJ-11">
          <mxGeometry relative="1" as="geometry">
            <Array as="points">
              <mxPoint x="190" y="340" />
            </Array>
          </mxGeometry>
        </mxCell>
        <mxCell id="WIyWlLk6GJQsqaUBKTNV-12" value="ORDER" style="rounded=1;whiteSpace=wrap;html=1;fontSize=12;glass=0;strokeWidth=1;shadow=0;" parent="WIyWlLk6GJQsqaUBKTNV-1" vertex="1">
          <mxGeometry x="354" y="190" width="120" height="40" as="geometry" />
        </mxCell>
        <mxCell id="wTgOXSbM0RJYuEq4dUPJ-24" style="edgeStyle=orthogonalEdgeStyle;rounded=0;orthogonalLoop=1;jettySize=auto;html=1;exitX=0.5;exitY=1;exitDx=0;exitDy=0;" edge="1" parent="WIyWlLk6GJQsqaUBKTNV-1" source="wTgOXSbM0RJYuEq4dUPJ-0" target="wTgOXSbM0RJYuEq4dUPJ-0">
          <mxGeometry relative="1" as="geometry" />
        </mxCell>
        <mxCell id="wTgOXSbM0RJYuEq4dUPJ-25" style="edgeStyle=orthogonalEdgeStyle;rounded=0;orthogonalLoop=1;jettySize=auto;html=1;entryX=0.5;entryY=0;entryDx=0;entryDy=0;entryPerimeter=0;dashed=1;" edge="1" parent="WIyWlLk6GJQsqaUBKTNV-1" source="wTgOXSbM0RJYuEq4dUPJ-0" target="wTgOXSbM0RJYuEq4dUPJ-11">
          <mxGeometry relative="1" as="geometry">
            <Array as="points">
              <mxPoint x="674" y="340" />
            </Array>
          </mxGeometry>
        </mxCell>
        <mxCell id="wTgOXSbM0RJYuEq4dUPJ-26" style="edgeStyle=orthogonalEdgeStyle;rounded=0;orthogonalLoop=1;jettySize=auto;html=1;entryX=0;entryY=0.5;entryDx=0;entryDy=0;entryPerimeter=0;dashed=1;" edge="1" parent="WIyWlLk6GJQsqaUBKTNV-1" source="WIyWlLk6GJQsqaUBKTNV-12" target="wTgOXSbM0RJYuEq4dUPJ-11">
          <mxGeometry relative="1" as="geometry" />
        </mxCell>
        <mxCell id="wTgOXSbM0RJYuEq4dUPJ-30" value="H2" style="shape=cylinder3;whiteSpace=wrap;html=1;boundedLbl=1;backgroundOutline=1;size=15;" vertex="1" parent="WIyWlLk6GJQsqaUBKTNV-1">
          <mxGeometry x="260" y="180" width="40" height="60" as="geometry" />
        </mxCell>
        <mxCell id="wTgOXSbM0RJYuEq4dUPJ-33" value="" style="shape=message;html=1;outlineConnect=0;" vertex="1" parent="WIyWlLk6GJQsqaUBKTNV-1">
          <mxGeometry x="270.0038461538462" y="333" width="20" height="14" as="geometry" />
        </mxCell>
        <mxCell id="wTgOXSbM0RJYuEq4dUPJ-34" value="" style="shape=message;html=1;outlineConnect=0;" vertex="1" parent="WIyWlLk6GJQsqaUBKTNV-1">
          <mxGeometry x="664.0038461538462" y="270" width="20" height="14" as="geometry" />
        </mxCell>
        <mxCell id="wTgOXSbM0RJYuEq4dUPJ-35" value="" style="shape=message;html=1;outlineConnect=0;" vertex="1" parent="WIyWlLk6GJQsqaUBKTNV-1">
          <mxGeometry x="404.0038461538462" y="390" width="20" height="14" as="geometry" />
        </mxCell>
        <mxCell id="wTgOXSbM0RJYuEq4dUPJ-36" value="" style="shape=message;html=1;outlineConnect=0;" vertex="1" parent="WIyWlLk6GJQsqaUBKTNV-1">
          <mxGeometry x="300.0038461538462" y="453" width="20" height="14" as="geometry" />
        </mxCell>
        <mxCell id="wTgOXSbM0RJYuEq4dUPJ-38" value="H2" style="shape=cylinder3;whiteSpace=wrap;html=1;boundedLbl=1;backgroundOutline=1;size=15;" vertex="1" parent="WIyWlLk6GJQsqaUBKTNV-1">
          <mxGeometry x="530" y="180" width="40" height="60" as="geometry" />
        </mxCell>
        <mxCell id="wTgOXSbM0RJYuEq4dUPJ-39" value="H2" style="shape=cylinder3;whiteSpace=wrap;html=1;boundedLbl=1;backgroundOutline=1;size=15;" vertex="1" parent="WIyWlLk6GJQsqaUBKTNV-1">
          <mxGeometry x="787" y="180" width="40" height="60" as="geometry" />
        </mxCell>
        <mxCell id="wTgOXSbM0RJYuEq4dUPJ-41" value="" style="endArrow=classic;startArrow=classic;html=1;rounded=0;entryX=0;entryY=0.5;entryDx=0;entryDy=0;entryPerimeter=0;exitX=1;exitY=0.5;exitDx=0;exitDy=0;" edge="1" parent="WIyWlLk6GJQsqaUBKTNV-1" source="WIyWlLk6GJQsqaUBKTNV-7" target="wTgOXSbM0RJYuEq4dUPJ-30">
          <mxGeometry width="50" height="50" relative="1" as="geometry">
            <mxPoint x="290" y="270" as="sourcePoint" />
            <mxPoint x="340" y="220" as="targetPoint" />
          </mxGeometry>
        </mxCell>
        <mxCell id="wTgOXSbM0RJYuEq4dUPJ-42" value="" style="endArrow=classic;startArrow=classic;html=1;rounded=0;entryX=0;entryY=0.5;entryDx=0;entryDy=0;entryPerimeter=0;exitX=1;exitY=0.5;exitDx=0;exitDy=0;" edge="1" parent="WIyWlLk6GJQsqaUBKTNV-1" source="WIyWlLk6GJQsqaUBKTNV-12" target="wTgOXSbM0RJYuEq4dUPJ-38">
          <mxGeometry width="50" height="50" relative="1" as="geometry">
            <mxPoint x="480" y="209.88" as="sourcePoint" />
            <mxPoint x="530" y="209.88" as="targetPoint" />
          </mxGeometry>
        </mxCell>
        <mxCell id="wTgOXSbM0RJYuEq4dUPJ-43" value="" style="endArrow=classic;startArrow=classic;html=1;rounded=0;entryX=0;entryY=0.5;entryDx=0;entryDy=0;entryPerimeter=0;exitX=1;exitY=0.5;exitDx=0;exitDy=0;" edge="1" parent="WIyWlLk6GJQsqaUBKTNV-1" source="wTgOXSbM0RJYuEq4dUPJ-0" target="wTgOXSbM0RJYuEq4dUPJ-39">
          <mxGeometry width="50" height="50" relative="1" as="geometry">
            <mxPoint x="737" y="209.88" as="sourcePoint" />
            <mxPoint x="787" y="209.88" as="targetPoint" />
          </mxGeometry>
        </mxCell>
        <mxCell id="wTgOXSbM0RJYuEq4dUPJ-44" value="" style="shape=message;html=1;outlineConnect=0;" vertex="1" parent="WIyWlLk6GJQsqaUBKTNV-1">
          <mxGeometry x="404.0038461538462" y="256" width="20" height="14" as="geometry" />
        </mxCell>
        <mxCell id="wTgOXSbM0RJYuEq4dUPJ-48" value="&lt;font style=&quot;font-size: 16px;&quot;&gt;Network Privado&lt;/font&gt;" style="text;html=1;align=center;verticalAlign=middle;whiteSpace=wrap;rounded=0;strokeWidth=2;" vertex="1" parent="WIyWlLk6GJQsqaUBKTNV-1">
          <mxGeometry x="-140" y="60" width="160" height="30" as="geometry" />
        </mxCell>
        <mxCell id="wTgOXSbM0RJYuEq4dUPJ-49" value="&lt;font style=&quot;font-size: 16px;&quot;&gt;NetworkPúblico&lt;/font&gt;" style="text;html=1;align=center;verticalAlign=middle;whiteSpace=wrap;rounded=0;strokeWidth=2;" vertex="1" parent="WIyWlLk6GJQsqaUBKTNV-1">
          <mxGeometry x="-140" y="-40" width="160" height="30" as="geometry" />
        </mxCell>
        <mxCell id="wTgOXSbM0RJYuEq4dUPJ-54" style="edgeStyle=orthogonalEdgeStyle;rounded=0;orthogonalLoop=1;jettySize=auto;html=1;entryX=0.5;entryY=0;entryDx=0;entryDy=0;dashed=1;" edge="1" parent="WIyWlLk6GJQsqaUBKTNV-1" source="wTgOXSbM0RJYuEq4dUPJ-50" target="WIyWlLk6GJQsqaUBKTNV-7">
          <mxGeometry relative="1" as="geometry" />
        </mxCell>
        <mxCell id="wTgOXSbM0RJYuEq4dUPJ-55" style="edgeStyle=orthogonalEdgeStyle;rounded=0;orthogonalLoop=1;jettySize=auto;html=1;dashed=1;" edge="1" parent="WIyWlLk6GJQsqaUBKTNV-1" source="wTgOXSbM0RJYuEq4dUPJ-50" target="wTgOXSbM0RJYuEq4dUPJ-0">
          <mxGeometry relative="1" as="geometry" />
        </mxCell>
        <mxCell id="wTgOXSbM0RJYuEq4dUPJ-56" style="edgeStyle=orthogonalEdgeStyle;rounded=0;orthogonalLoop=1;jettySize=auto;html=1;entryX=0.5;entryY=0;entryDx=0;entryDy=0;dashed=1;" edge="1" parent="WIyWlLk6GJQsqaUBKTNV-1" source="wTgOXSbM0RJYuEq4dUPJ-50" target="WIyWlLk6GJQsqaUBKTNV-12">
          <mxGeometry relative="1" as="geometry" />
        </mxCell>
        <mxCell id="wTgOXSbM0RJYuEq4dUPJ-50" value="" style="aspect=fixed;sketch=0;html=1;dashed=0;whitespace=wrap;verticalLabelPosition=bottom;verticalAlign=top;fillColor=#2875E2;strokeColor=#ffffff;points=[[0.005,0.63,0],[0.1,0.2,0],[0.9,0.2,0],[0.5,0,0],[0.995,0.63,0],[0.72,0.99,0],[0.5,1,0],[0.28,0.99,0]];shape=mxgraph.kubernetes.icon2;prIcon=ep" vertex="1" parent="WIyWlLk6GJQsqaUBKTNV-1">
          <mxGeometry x="352.5" y="-130" width="125" height="120" as="geometry" />
        </mxCell>
        <mxCell id="wTgOXSbM0RJYuEq4dUPJ-51" value="&lt;font style=&quot;font-size: 17px;&quot;&gt;API Gateway&lt;/font&gt;" style="text;html=1;align=center;verticalAlign=middle;resizable=0;points=[];autosize=1;strokeColor=none;fillColor=none;" vertex="1" parent="WIyWlLk6GJQsqaUBKTNV-1">
          <mxGeometry x="355" y="-180" width="120" height="30" as="geometry" />
        </mxCell>
        <mxCell id="wTgOXSbM0RJYuEq4dUPJ-53" style="edgeStyle=orthogonalEdgeStyle;rounded=0;orthogonalLoop=1;jettySize=auto;html=1;" edge="1" parent="WIyWlLk6GJQsqaUBKTNV-1" source="wTgOXSbM0RJYuEq4dUPJ-9" target="wTgOXSbM0RJYuEq4dUPJ-9">
          <mxGeometry relative="1" as="geometry" />
        </mxCell>
      </root>
    </mxGraphModel>
  </diagram>
</mxfile>
